<?xml version="1.0" encoding="UTF-8"?>
<svg id="Layer_1" data-name="Layer 1" xmlns="http://www.w3.org/2000/svg" viewBox="0 0 581.83 581.83">
  <defs>
    <style>
      .cls-1 {
        fill: #b8b9b9;
      }

      .cls-2 {
        fill: #319445;
      }

      .cls-3 {
        fill: #77c045;
      }
    </style>
  </defs>
  <path class="cls-1" d="M290.91,0C130.25,0,0,130.25,0,290.91s130.25,290.91,290.91,290.91,290.91-130.25,290.91-290.91S451.58,0,290.91,0Zm0,574.12C134.5,574.12,7.7,447.33,7.7,290.91S134.5,7.7,290.91,7.7s283.21,126.8,283.21,283.21-126.8,283.21-283.21,283.21Z"/>
  <path class="cls-2" d="M304.17,526.42c7.23-35.33,14.46-70.66,21.69-105.99-13.86-11.82-37.36-35.19-52.02-71.71-8.3-20.68-10.36-39.27-12.54-56.98-5.04-40.97,1.95-48.69-5.42-83.22-5.52-25.87-14.19-43.75-17.54-50.29-11.25-22.01-23.92-36.48-27.82-40.8-19.45-21.56-40.78-34.77-56.79-42.69,24.7,29.95,35.19,57.84,40.02,74.86,5.6,19.7,6.92,36.43,7.89,49.52,.89,12.12,0,14.36-2.28,66.99-1.24,28.6-1.44,37.52-.09,50.58,1.66,16.09,4.59,28.02,6.72,36.55,7.56,30.32,17.85,52.31,23.93,65.14,4.17,8.78,15.93,32.75,36.09,61.28,13.6,19.26,26.96,34.83,38.16,46.76Z"/>
  <path class="cls-3" d="M279.33,541.25c7.14-35.26,14.27-70.52,21.41-105.78-13.68-11.8-36.88-35.12-51.36-71.57-8.2-20.64-10.22-39.19-12.38-56.87-4.98-40.89,1.93-48.59-5.35-83.06-5.45-25.82-14.01-43.66-17.31-50.19-11.1-21.97-23.61-36.41-27.46-40.72-19.2-21.52-40.26-34.7-56.06-42.6,24.38,29.9,34.74,57.73,39.51,74.71,5.53,19.66,6.83,36.35,7.79,49.42,.88,12.09,0,14.34-2.25,66.86-1.23,28.55-1.42,37.44-.09,50.48,1.64,16.06,4.53,27.97,6.63,36.48,7.47,30.26,17.62,52.21,23.63,65.01,4.11,8.77,15.73,32.69,35.63,61.16,13.43,19.22,26.62,34.76,37.67,46.67Z"/>
  <g>
    <path class="cls-1" d="M279.08,541.25c18.45-94.9,36.89-189.79,55.34-284.69,2.35,3.24,4.69,6.48,7.04,9.72,4.27-4.43,8.54-8.86,12.81-13.29,2.26,3.11,4.51,6.22,6.77,9.32,8.14-10.94,16.27-21.87,24.41-32.81,15.52-3.66,31.05-7.32,46.57-10.98-1.98,5.59-3.97,11.18-5.95,16.78,3.4,2.33,6.79,4.65,10.19,6.98-41.97,99.69-83.93,199.39-125.9,299.08-10.42-.04-20.85-.07-31.27-.11Z"/>
    <path class="cls-1" d="M448.12,160.19c-18.88-14.6-37.76-29.19-56.64-43.79-3.72-.48-7.44-.97-11.16-1.45-4.16-13.23-8.32-26.46-12.49-39.68-10.52,56.88-21.04,113.76-31.56,170.65,2.13,2.71,4.26,5.42,6.4,8.14,3.88-4.24,7.76-8.47,11.64-12.71,2.19,2.81,4.39,5.61,6.58,8.42,6.98-9.44,13.95-18.89,20.93-28.33,23.04-5.7,46.09-11.4,69.13-17.1,7.63-19.68,15.27-39.35,22.9-59.03-8.58,4.97-17.16,9.93-25.74,14.9Zm-11.41,26.76c-1.85,4-3.21,7.77-4.23,11.12-22.87-3.46-45.75-6.93-68.62-10.39,2.29-9.48,4.43-19.52,6.33-30.12,1.63-9.11,2.96-17.89,4.02-26.32,10.27,11.07,19.43,19.49,26.32,25.43,8.07,6.96,12.45,10.01,16.76,12.56,8.13,4.81,15.56,7.54,20.82,9.13,.48,.02,.88,0,1.18-.01,.52-.04,.93-.1,1.38-.18,.33-.05,.6-.11,.8-.14-1.59,2.59-3.23,5.57-4.77,8.92Z"/>
  </g>
</svg>